/* XPM */
static char *dummy[]={
"32 32 4 1",
"a c #000000",
"b c #ff0000",
"# c #000000",
". c None",
"................................",
"..............####..............",
"..........############..........",
".........#####.aa.#####.........",
".......###.....aa.....###.......",
"......####.....aa.....####......",
"......#...#..........#...#......",
"....##....................##....",
"....##.....bb.............##....",
"...###.....bb..bb.........###...",
"..##..#.....bb.bb........#..##..",
"..##........bb.bb...........##..",
"..##.........bbbb...........##..",
"..##..........bbb...........##..",
".##...........bbb............##.",
".##aaa.........bb.........aaa##.",
".##aaa....................aaa##.",
".##..........................##.",
"..##........................##..",
"..##........................##..",
"..##........................##..",
"..##..#..................#..##..",
"...###....................###...",
"....##....................##....",
"....##....................##....",
"......#...#..........#...#......",
"......####.....aa.....####......",
".......###.....aa.....###.......",
".........#####.aa.#####.........",
"..........############..........",
"..............####..............",
"................................"};
