/* XPM */
static char *isoview[] = {
/* width height ncolors chars_per_pixel */
"22 22 3 1",
/* colors */
"  c #000",
". c #FFF",
"X c None",
/* pixels */
"XXXXXXXXXXXXXXXXXXXXXX",
"XXXXXXXXXXXXXXXXXXXXXX",
"XXXXXXXXXX  XXXXXXXXXX",
"XXXXXXXXX    XXXXXXXXX",
"XXXXXXXX      XXXXXXXX",
"XXXXXXXXXX  XXXXXXXXXX",
"XXXXXXXXXX  XXXXXXXXXX",
"XXXXXXXXXX  XXXXXXXXXX",
"XXXXXXXXXX  XXXXXXXXXX",
"XXXXXXXXXX  XXXXXXXXXX",
"XXXXXXXXXX  XXXXXXXXXX",
"XXXXXXXXX    XXXXXXXXX",
"XXXXXXXX  XX  XXXXXXXX",
"XXXXXX   XXXX   XXXXXX",
"XX XX  XXXXXXXX  XX XX",
"XX    XXXXXXXXXX    XX",
"XX   XXXXXXXXXXXX   XX",
"XX    XXXXXXXXXX    XX",
"XXXXXXXXXXXXXXXXXXXXXX",
"XXXXXXXXXXXXXXXXXXXXXX",
"XXXXXXXXXXXXXXXXXXXXXX",
"XXXXXXXXXXXXXXXXXXXXXX"
};
