/* XPM */
static char * lamp_xpm[] = {
/* width height ncolors chars_per_pixel */
"22 22 2 1",
/* colors */
" 	c none",
".	c black",
/* pixels */
"                      ",
"                      ",
"          .           ",
"       ... ...        ",
"      .       .       ",
"     .         .      ",
"     .         .      ",
"     .         .      ",
"    .           .     ",
"     .         .      ",
"     .         .      ",
"      .       .       ",
"       .     .        ",
"        .   .         ",
"        .   .         ",
"        .....         ",
"         ..           ",
"        .  ..         ",
"         ..           ",
"        .  ..         ",
"                      ",
"                      "};
