/* XPM */
static char *nextstop[] = {
/* width height ncolors chars_per_pixel */
"22 22 3 1",
/* colors */
"  c #000",
". c #FFF",
"X c None",
/* pixels */
"XXXXXXXXXXXXXXXXXXXXXX",
"XXXXXXXXXXXXXXXXXXXXXX",
"XXXXXXXXXXXXXXXXXXXXXX",
"XXXXXXX XXXXXXX  XXXXX",
"XXXXXXX  XXXXXX  XXXXX",
"XXXXXXX   XXXXX  XXXXX",
"XXXXXXX    XXXX  XXXXX",
"XXXXXXX     XXX  XXXXX",
"XXXXXXX      XX  XXXXX",
"XXXXXXX       X  XXXXX",
"XXXXXXX          XXXXX",
"XXXXXXX          XXXXX",
"XXXXXXX       X  XXXXX",
"XXXXXXX      XX  XXXXX",
"XXXXXXX     XXX  XXXXX",
"XXXXXXX    XXXX  XXXXX",
"XXXXXXX   XXXXX  XXXXX",
"XXXXXXX  XXXXXX  XXXXX",
"XXXXXXX XXXXXXX  XXXXX",
"XXXXXXXXXXXXXXXXXXXXXX",
"XXXXXXXXXXXXXXXXXXXXXX",
"XXXXXXXXXXXXXXXXXXXXXX"
};
