/* XPM */
static char *dummy[]={
"32 32 99 2",
".# c #474747",
".a c #494949",
".b c #6a6a6a",
".e c #707070",
".c c #787878",
".d c #7a7a7a",
".f c #7f7f7f",
".k c #888888",
"#u c #8b8b8b",
"#i c #8c8c8c",
"#b c #8d8d8d",
"#s c #8e8e8e",
"#j c #8f8f8f",
"#c c #909090",
".3 c #919191",
".l c #929292",
".0 c #949494",
".Z c #959595",
"#y c #969696",
".U c #979797",
"#w c #989898",
"#r c #999999",
".O c #9a9a9a",
".g c #9b9b9b",
".H c #9d9d9d",
"#C c #9e9e9e",
".s c #9f9f9f",
".j c #a0a0a0",
"#a c #a2a2a2",
"#n c #a3a3a3",
"#k c #a4a4a4",
"#d c #a5a5a5",
".4 c #a6a6a6",
".h c #a7a7a7",
".1 c #a8a8a8",
".i c #a9a9a9",
".z c #aaaaaa",
".T c #acacac",
".V c #aeaeae",
"#h c #afafaf",
"#x c #b0b0b0",
"#o c #b1b1b1",
".N c #b2b2b2",
"#z c #b3b3b3",
"#q c #b4b4b4",
".P c #b5b5b5",
"## c #b6b6b6",
"#B c #b7b7b7",
"#E c #b8b8b8",
"#e c #b9b9b9",
".5 c #bababa",
".2 c #bbbbbb",
".I c #bcbcbc",
".m c #bdbdbd",
".Y c #bebebe",
"#G c #bfbfbf",
"#t c #c0c0c0",
".G c #c1c1c1",
".A c #c2c2c2",
"#A c #c3c3c3",
"#F c #c4c4c4",
".r c #c5c5c5",
"#f c #c6c6c6",
"#D c #c7c7c7",
".S c #c8c8c8",
".n c #c9c9c9",
"#p c #cacaca",
".6 c #cbcbcb",
"#v c #cccccc",
"#m c #cdcdcd",
".q c #cecece",
".J c #cfcfcf",
".y c #d0d0d0",
"#g c #d1d1d1",
".B c #d2d2d2",
"Qt c None",
".M c #d4d4d4",
".o c #d5d5d5",
".p c #d6d6d6",
".F c #d7d7d7",
".L c #d8d8d8",
".K c #d9d9d9",
".x c #dadada",
".E c #dbdbdb",
".X c #dcdcdc",
".C c #dddddd",
".R c #dedede",
".7 c #dfdfdf",
".t c #e0e0e0",
".w c #e1e1e1",
".Q c #e2e2e2",
".8 c #e3e3e3",
".W c #e4e4e4",
".D c #e5e5e5",
"#l c #e6e6e6",
".9 c #e7e7e7",
".v c #e8e8e8",
".u c #e9e9e9",
"#. c #eaeaea",
"QtQtQtQtQtQtQtQtQtQtQtQtQtQtQtQtQtQtQtQtQtQtQtQtQtQtQtQtQtQtQtQt",
"QtQtQtQtQtQtQtQtQtQtQtQtQtQtQtQtQtQtQtQtQtQtQtQtQtQtQtQtQtQtQtQt",
"QtQtQtQtQtQtQtQtQtQtQtQtQtQtQtQtQtQtQtQtQtQtQtQtQtQtQtQtQtQtQtQt",
"QtQtQtQtQtQtQtQtQtQtQtQtQtQtQt.#.aQtQtQtQtQtQtQtQtQtQtQtQtQtQtQt",
"QtQtQtQtQtQtQtQtQtQtQtQtQtQt.b.c.d.eQtQtQtQtQtQtQtQtQtQtQtQtQtQt",
"QtQtQtQtQtQtQtQtQtQtQtQtQt.f.g.h.i.j.kQtQtQtQtQtQtQtQtQtQtQtQtQt",
"QtQtQtQtQtQtQtQtQtQtQtQt.l.m.n.o.p.q.r.jQtQtQtQtQtQtQtQtQtQtQtQt",
"QtQtQtQtQtQtQtQtQtQtQt.s.n.o.t.u.v.w.x.y.zQtQtQtQtQtQtQtQtQtQtQt",
"QtQtQtQtQtQtQtQtQtQt.s.A.B.C.D.u.v.w.E.F.G.HQtQtQtQtQtQtQtQtQtQt",
"QtQtQtQtQtQtQtQtQt.j.I.J.K.w.D.u.v.w.C.L.M.N.OQtQtQtQtQtQtQtQtQt",
"QtQtQtQtQtQtQtQt.j.P.n.p.C.w.D.u.v.Q.R.x.p.S.T.UQtQtQtQtQtQtQtQt",
"QtQtQtQtQtQtQt.O.V.AQt.K.C.w.D.u.v.W.t.X.FQt.Y.z.ZQtQtQtQtQtQtQt",
"QtQtQtQtQtQt.0.1.I.J.o.K.C.w.D.u.u.D.w.C.K.o.J.2.h.lQtQtQtQtQtQt",
"QtQtQtQtQt.3.4.5.6Qt.F.E.7.8.9#..u.D.w.R.x.p.B.n###a#bQtQtQtQtQt",
"QtQtQtQt#c#d#e#f.B.p.x.C.w.D.9#..u.D.Q.R.x.F.M#g.A#h.g#iQtQtQtQt",
"QtQtQt#j#k.P.A.q.M.L.X.t.Q.D.9#..u#l.Q.R.E.L.pQt#m.2.1.O#iQtQtQt",
"QtQt#j#n#o.m#pQt.p.x.C.t.Q.D.9#..u#l.Q.7.X.x.F.o.B#f#q.4#r#iQtQt",
"Qt#s.s.T#e.r#g.o.K.E.R.t.8.D.9#..u#l.Q.t.C.E.K.p.M#g#t.N.4#r#uQt",
"#b.g.1.P.G#vQt.p.K.E.R.t.8.D.v#..u#l.W.w.7.X.x.L.oQt.6.m#o#d#w#u",
"#w#k#x.I.S.B.M.F.K.X.R.w.8.D.v#..u.9.D.Q.t.R.E.K.p.M.B.S.m#o#k#y",
".4#z.Y.n#g.M.p.K.E.C.t.Q.W.9.u#.#..v.D.8.w.R.X.K.F.o.B.q#A#B.z#C",
"#q#t#D.J.M.p.K.E.C.t.Q.W#l.v.u#.#..9.D.8.w.R.X.x.F.o.B.y.n.m#o#d",
".Y#f#m.M.p.K.E.C.t.Q.W#l.9.v.u#.#..9.D.8.w.R.X.x.F.oQt.y.q#A#E.T",
"#F.6.B.p.K.E.C.t.Q.W.D#l.9.v.u#.#..9.D.8.w.R.X.x.F.oQt#g.q.n.Y#z",
"#p#g.p.K.E.C.t.w.Q.8.D#l.9.v.u#..u.9.D.8.w.R.X.x.L.oQt#g.J#v#F#e",
".J.p.K.E.C.7.t.w.Q.8.D#l.9.v.u#..u.9.D.8.w.R.X.x.L.p.M#g.J#m#p#G",
".M.K.E.C.R.7.t.w.Q.8.D#l.9.v.u#..u.9.D.8.w.7.X.x.L.p.M.B.J#m.6.r",
".K.E.X.C.R.7.t.w.Q.8.D#l.9.v.u#..u.9.D.8.w.7.C.E.L.p.M.B.y#m.6.n",
"QtQtQtQtQtQt.t.w.Q.8.D#l.9.v.u#..u.9.D.8.w.7.C.E.K.pQtQtQtQtQtQt",
"QtQtQtQtQtQtQtQtQtQtQtQtQtQtQtQtQtQtQtQtQtQtQtQtQtQtQtQtQtQtQtQt",
"QtQtQtQtQtQtQtQtQtQtQtQtQtQtQtQtQtQtQtQtQtQtQtQtQtQtQtQtQtQtQtQt",
"QtQtQtQtQtQtQtQtQtQtQtQtQtQtQtQtQtQtQtQtQtQtQtQtQtQtQtQtQtQtQtQt"};
