/* XPM */
static char *dummy[]={
"32 32 3 1",
"a c #b4b4b4",
". c None",
"# c #e7e7e7",
"................................",
"................................",
"................................",
"...............##...............",
"..............a##a..............",
".............a####a.............",
"............a######a............",
"...........aa######aa...........",
"..........aa########aa..........",
".........aa##########aa.........",
"........aaa##########aaa........",
".......aaa############aaa.......",
"......aaaa############aaaa......",
".....aaaa##############aaaa.....",
"....aaaa################aaaa....",
"...aaaaa################aaaaa...",
"..aaaaa##################aaaaa..",
".aaaaa####################aaaaa.",
"aaaaaa####################aaaaaa",
"aaaaa######################aaaaa",
"aaaaa######################aaaaa",
"aaaa########################aaaa",
"aaa##########################aaa",
"aaa##########################aaa",
"aa############################aa",
"aa############################aa",
"a##############################a",
"################################",
"......####################......",
"................................",
"................................",
"................................"};
