/* XPM */
static char *dummy[]={
"32 32 3 1",
"a c #747474",
"# c #858585",
". c None",
"................................",
"................................",
"................................",
"................................",
"...............##...............",
".............######.............",
"...........##########...........",
"........################........",
"......####################......",
"....########################....",
"....a######################a....",
"....aa####################aa....",
"....aaa##################aaa....",
".....aaa################aaa.....",
".....aaaaa############aaaaa.....",
".....aaaaaa##########aaaaaa.....",
"......aaaaaa########aaaaaa......",
"......aaaaaaaa####aaaaaaaa......",
"......aaaaaaaaa##aaaaaaaaa......",
"......aaaaaaaaaaaaaaaaaaaa......",
".......aaaaaaaaaaaaaaaaaa.......",
"........aaaaaaaaaaaaaaaa........",
".........aaaaaaaaaaaaaa.........",
"..........aaaaaaaaaaaa..........",
"...........aaaaaaaaaa...........",
"............aaaaaaaa............",
".............aaaaaa.............",
"..............aaaa..............",
"...............aa...............",
"................................",
"................................",
"................................"};
