/* XPM */
static char *dummy[]={
"32 32 103 2",
"#k c #0c0c0c",
"#K c #0d0d0d",
"#I c #0e0e0e",
"#F c #0f0f0f",
"#C c #101010",
"#A c #111111",
"#x c #131313",
"#v c #141414",
"#s c #161616",
"#p c #171717",
"#f c #181818",
"#J c #202020",
"#G c #212121",
"#l c #222222",
"#b c #232323",
".8 c #242424",
"#y c #262626",
"#w c #282828",
"#t c #292929",
"#q c #2b2b2b",
"#g c #2d2d2d",
"## c #2e2e2e",
".T c #2f2f2f",
"#H c #323232",
"#D c #343434",
"#B c #353535",
"#m c #363636",
".9 c #373737",
".0 c #383838",
".N c #393939",
".x c #3b3b3b",
".p c #3d3d3d",
".i c #3f3f3f",
".U c #404040",
".H c #414141",
".q c #424242",
"#E c #434343",
".j c #444444",
".r c #464646",
".d c #474747",
".y c #484848",
".k c #494949",
".a c #4a4a4a",
".s c #4b4b4b",
".e c #4c4c4c",
".z c #4d4d4d",
".# c #4e4e4e",
".I c #4f4f4f",
".b c #505050",
".f c #515151",
".A c #525252",
".l c #535353",
"#z c #545454",
".c c #555555",
".B c #565656",
".g c #575757",
".m c #585858",
".O c #595959",
".t c #5a5a5a",
".C c #5b5b5b",
".h c #5c5c5c",
".n c #5d5d5d",
".u c #5e5e5e",
".V c #5f5f5f",
".D c #606060",
".J c #616161",
".o c #626262",
".v c #636363",
".E c #646464",
".K c #656565",
".P c #666666",
".W c #676767",
".w c #686868",
".F c #696969",
".L c #6a6a6a",
".Q c #6b6b6b",
".1 c #6c6c6c",
".G c #6e6e6e",
".R c #6f6f6f",
".X c #707070",
".6 c #717171",
"#c c #727272",
".M c #737373",
".Y c #747474",
".2 c #757575",
".S c #787878",
".3 c #797979",
"#u c #7b7b7b",
".Z c #7c7c7c",
".4 c #7d7d7d",
"#n c #7e7e7e",
".5 c #818181",
"#h c #838383",
".7 c #858585",
"#r c #878787",
"#d c #888888",
"#. c #898989",
"#a c #8d8d8d",
"#i c #8e8e8e",
"#e c #909090",
"#o c #929292",
"#j c #949494",
"Qt c None",
"QtQtQtQtQtQtQtQtQtQtQtQtQtQtQtQtQtQtQtQtQtQtQtQtQtQtQtQtQtQtQtQt",
"QtQtQtQtQtQtQtQtQtQtQtQtQtQtQtQtQtQtQtQtQtQtQtQtQtQtQtQtQtQtQtQt",
"QtQtQtQtQtQtQtQtQtQtQtQtQtQtQtQtQtQtQtQtQtQtQtQtQtQtQtQtQtQtQtQt",
"QtQtQtQtQtQtQtQtQtQtQtQtQtQtQtQtQtQtQtQtQtQtQtQtQtQtQtQtQtQtQtQt",
"QtQtQtQtQtQtQtQtQtQtQtQtQtQtQt.#.#QtQtQtQtQtQtQtQtQtQtQtQtQtQtQt",
"QtQtQtQtQtQtQtQtQtQtQtQtQt.a.b.c.c.b.aQtQtQtQtQtQtQtQtQtQtQtQtQt",
"QtQtQtQtQtQtQtQtQtQtQt.d.e.f.g.h.h.g.f.e.dQtQtQtQtQtQtQtQtQtQtQt",
"QtQtQtQtQtQtQtQt.i.j.k.#.l.m.n.o.o.n.m.l.#.k.j.iQtQtQtQtQtQtQtQt",
"QtQtQtQtQtQt.p.q.r.s.b.c.t.u.v.w.w.v.u.t.c.b.s.r.q.pQtQtQtQtQtQt",
"QtQtQtQt.x.i.j.y.z.A.B.C.D.E.F.G.G.F.E.D.C.B.A.z.y.j.i.xQtQtQtQt",
"QtQtQtQt.H.r.a.I.l.m.h.J.K.L.G.M.M.G.L.K.J.h.m.l.I.a.r.HQtQtQtQt",
"QtQtQtQt.N.k.b.c.O.u.o.P.Q.R.M.S.S.M.R.Q.P.o.u.O.c.b.k.NQtQtQtQt",
"QtQtQtQt.T.U.b.C.V.v.W.Q.X.Y.S.Z.Z.S.Y.X.Q.W.v.V.C.b.U.TQtQtQtQt",
"QtQtQtQtQt.0.y.g.E.w.1.X.2.3.4.5.5.4.3.2.X.1.w.E.g.y.0QtQtQtQtQt",
"QtQtQtQtQt.T.U.b.u.Q.6.2.3.4.5.7.7.5.4.3.2.6.Q.u.b.U.TQtQtQtQtQt",
"QtQtQtQtQt.8.9.y.g.K.6.3.4.5.7#.#..7.5.4.3.6.K.g.y.9.8QtQtQtQtQt",
"QtQtQtQtQtQt##.U.b.u.1.S.5.7#.#a#a#..7.5.S.1.u.b.U##QtQtQtQtQtQt",
"QtQtQtQtQtQt#b.9.y.g.K#c.4#d#a#e#e#a#d.4#c.K.g.y.9#bQtQtQtQtQtQt",
"QtQtQtQtQtQt#f#g.i.b.V.1.S#h#i#j#j#i#h.S.1.V.b.i#g#fQtQtQtQtQtQt",
"QtQtQtQtQtQt#k#l#m.y.m.P.M#n#.#o#o#.#n.M.P.m.y#m#l#kQtQtQtQtQtQt",
"QtQtQtQtQtQtQt#p#q.p.e.C.W.M.4#r#r.4.M.W.C.e.p#q#pQtQtQtQtQtQtQt",
"QtQtQtQtQtQtQtQt#s#t.x.a.m.K.6#u#u.6.K.m.a.x#t#sQtQtQtQtQtQtQtQt",
"QtQtQtQtQtQtQtQtQt#v#w.N.y.B.v.G.G.v.B.y.N#w#vQtQtQtQtQtQtQtQtQt",
"QtQtQtQtQtQtQtQtQtQt#x#y.9.r#z.J.J#z.r.9#y#xQtQtQtQtQtQtQtQtQtQt",
"QtQtQtQtQtQtQtQtQtQtQt#A.8#B.j.A.A.j#B.8#AQtQtQtQtQtQtQtQtQtQtQt",
"QtQtQtQtQtQtQtQtQtQtQtQt#C#b#D#E#E#D#b#CQtQtQtQtQtQtQtQtQtQtQtQt",
"QtQtQtQtQtQtQtQtQtQtQtQtQt#F#G#H#H#G#FQtQtQtQtQtQtQtQtQtQtQtQtQt",
"QtQtQtQtQtQtQtQtQtQtQtQtQtQt#I#J#J#IQtQtQtQtQtQtQtQtQtQtQtQtQtQt",
"QtQtQtQtQtQtQtQtQtQtQtQtQtQtQt#K#KQtQtQtQtQtQtQtQtQtQtQtQtQtQtQt",
"QtQtQtQtQtQtQtQtQtQtQtQtQtQtQtQtQtQtQtQtQtQtQtQtQtQtQtQtQtQtQtQt",
"QtQtQtQtQtQtQtQtQtQtQtQtQtQtQtQtQtQtQtQtQtQtQtQtQtQtQtQtQtQtQtQt",
"QtQtQtQtQtQtQtQtQtQtQtQtQtQtQtQtQtQtQtQtQtQtQtQtQtQtQtQtQtQtQtQt"};
