/* XPM */
static char *dummy[]={
"32 32 2 1",
"# c #ff3366",
". c None",
"................................",
"................................",
"...............##...............",
"............#########...........",
"..........############..........",
".........##############.........",
"........################........",
"........################........",
".......##################.......",
".......#######...########.......",
".......#######....#######.......",
".......######......######.......",
".......######.....#######.......",
".......######.....#######.......",
".......######..##########.......",
".......######..##########.......",
".......######..#########........",
".......######..########.........",
".......######..########.........",
".......######..######...........",
".......######..####.............",
".......######...................",
".......######...................",
".......######...................",
".......######...................",
".......######...................",
".......######...................",
".......######...................",
".......######...................",
".......######...................",
"................................",
"................................"};
