/* XPM */
static char *dummy[]={
"32 32 3 1",
"# c #ff0000",
"a c #000000",
". c None",
"................................",
"................................",
".............######.............",
"..........############......#...",
"........################...##...",
".......#####........#####.###...",
"......####............#######...",
".......##....a.........######...",
".............aa........######...",
".............aaa......#######...",
".............aaaa....########...",
".............aaaaa..#########...",
".............aaaaaa.............",
".............aaaaaaa............",
".............aaaaaaaa...........",
".............aaaaaaaaa..........",
".............aaaaaaaaa..........",
".............aaaaaaaa...........",
".............aaaaaaa............",
".............aaaaaa.............",
"...########..aaaaa..............",
"...#######...aaaa...............",
"...######....aaa................",
"...#####.....aa.................",
"...######....a.........#........",
"...#######............###.......",
"...##..#####........#####.......",
"...#....################........",
"..........############..........",
".............######.............",
"................................",
"................................"};
