/* XPM */
static char *right[] = {
/* width height ncolors chars_per_pixel */
"22 22 3 1",
/* colors */
"  c #000",
". c #FFF",
"X c None",
/* pixels */
"XXXXXXXXXXXXXXXXXXXXXX",
"XXXXXXXXXXXXXXXXXXXXXX",
"XXXXXXXXXXXXXXXXXXXXXX",
"XXXXXXXXXXXXXXXXXXXXXX",
"XXXXXXXXXXXXXXXXXXXXXX",
"XXXXXXXXXXXXXXXXXXXXXX",
"XXXXXXXXXXXXXX XXXXXXX",
"XXXXXXXXXXXXXX  XXXXXX",
"XXXXXXXXXXXXXX   XXXXX",
"XXXXXXXXXXXXXX    XXXX",
"XXX                XXX",
"XXX                XXX",
"XXXXXXXXXXXXXX    XXXX",
"XXXXXXXXXXXXXX   XXXXX",
"XXXXXXXXXXXXXX  XXXXXX",
"XXXXXXXXXXXXXX XXXXXXX",
"XXXXXXXXXXXXXXXXXXXXXX",
"XXXXXXXXXXXXXXXXXXXXXX",
"XXXXXXXXXXXXXXXXXXXXXX",
"XXXXXXXXXXXXXXXXXXXXXX",
"XXXXXXXXXXXXXXXXXXXXXX",
"XXXXXXXXXXXXXXXXXXXXXX"
};
