/* XPM */
static char *dummy[]={
"32 32 3 1",
"# c #ff0000",
"a c #000000",
". c None",
"................................",
"................................",
"...............########.........",
"............################....",
"..........##################....",
".........###################....",
"........###################.....",
"........########......#####.....",
".......#######aa.........##.....",
".......#######aaa...............",
".......#######aaaa..............",
".......#######aaaaa.............",
".......#########aaaa............",
".......#############a...........",
"........###############.........",
"........################........",
"..........###############.......",
"...........###############......",
".............aa###########......",
".............aaaaa########......",
".............aaaaaa#######......",
".............aaaaa..######......",
".....#.......aaaa..#######......",
".....###.....aaa...#######......",
".....######..aa..########.......",
".....####################.......",
"....####################........",
"....###################.........",
"......###############...........",
"..........########..............",
"................................",
"................................"};
