/* XPM */
static char *dummy[]={
"32 32 8 1",
"# c #000000",
"e c #0000ff",
"a c #22e822",
"c c #76ffff",
". c None",
"f c #ff22ff",
"d c #ff7676",
"b c #ffff00",
"................................",
"................................",
"................................",
"................................",
"................................",
"................................",
"................................",
"..............#aa#..............",
".............#aaaa#.............",
"...........#aaaaaaaa#...........",
".........#aaaaaaaaaaaa#.........",
".......#aaaaaaaaaaaaaaaa#.......",
"......#aaaaaaaaaaaaaaaaaa#......",
".....#b#aaaaaaaaaaaaaaaa#c#.....",
".....##b##aaaaaaaaaaaa##c##.....",
".....d#bbb#aaaaaaaaaa#ccc#e.....",
".....#d#bbb#aaaaaaaa#ccc#e#.....",
".....#dd#bbb#aaaaaa#ccc#ee#.....",
"......ddd###.##aa##.###eee......",
"......#dddd##ff##ff##eeee#......",
"......#ddddd#ffffff#eeeee#......",
".......dddddd#ffff#eeeeee.......",
".......ddddddd#ff#eeeeeee.......",
"........dddddd#ff#eeeeee........",
".........ddddd#ff#eeeee.........",
"..........dddd#ff#eeee..........",
"...........ddd#ff#eee...........",
"............dd#ff#ee............",
".............d#ff#e.............",
"..............####..............",
"................................",
"................................"};
