/* XPM */
static char *dummy[]={
"32 32 18 1",
"i c #1a1a1d",
"h c #1d1d1a",
"j c #1a1a28",
"d c #1a231a",
"a c #252525",
"m c #281a28",
"c c #28281a",
"p c #313131",
"k c #1a1a53",
"e c #1a411a",
"# c #484848",
"n c #531a53",
"b c #53531a",
"l c #1a1aff",
"g c #1bb61b",
". c None",
"o c #ff1bff",
"f c #ffff1a",
"................................",
"...............##...............",
"............###aaa##............",
"..........###bbcdde###..........",
"........###bbbbbedeee###........",
"......###bbbfffbeeggeee###......",
"....###bbbfffffbeeggggeee###....",
"..###bbbfffffffbeeggggggeee###..",
"..abbbfffffffffbeeggggggggeeea..",
"##hcfffffffffffbeeggggggggggdi##",
".#ccbbfffffffffbeeggggggggeejj#.",
".##cbbbffffffffbeegggggggeekj##.",
".##bbbbbfffffffbeeggggggeekkk##.",
"..#bbfbbbbfffffcdeggggeekklkk#..",
"..#bbffbbbbffbbbeeeggeekkllkk#..",
"..##bfffbbbbbbeeeeeeeekklllk##..",
"...#bbffffccceeggeedjjllllkk#...",
"...#bbfffbbmmeeggeejjkklllkk#...",
"...##bfbbbnnnneeeekkkkkkklk##...",
"....#bcbnnooonneekklllkkkjk#....",
"....#bcnnoooooomjklllllkkjk#....",
"......moooooooonkklllllllj......",
"......#nooooooonkkllllllk#......",
"......##noooooonkklllllk##......",
".......##nooooonkkllllk##.......",
"........##noooonkklllk##........",
".........##nooonkkllk##.........",
"..........##noonkklk##..........",
"...........##nonkkk##...........",
"............##nnkj##............",
".............##mja#.............",
"..............#ppp.............."};
