/* XPM */
static char *twistright[] = {
/* width height ncolors chars_per_pixel */
"22 22 3 1",
/* colors */
"  c #000",
". c #FFF",
"X c None",
/* pixels */
"XXXXXXXXXXXXXXXXXXXXXX",
"XXXXXXXXXXXXXXXXXXXXXX",
"XXXXXXXXXXXXXXXXXXXXXX",
"XXXXXXXX     XXXXXXXXX",
"XXXXXX         XXXXXXX",
"XXXXX   XXXXX   XXXXXX",
"XXXX  XXXXXXXXX  XXXXX",
"XXXX  XXXXXXXXX  XXXXX",
"XXX  XXXXXXXXXXX  XXXX",
"XXX  XXXX   XXXX  XXXX",
"XXX  XXXX   XXXX  XXXX",
"XXX  XXXX   XXXX  XXXX",
"XXX  XXXXXXXX     XXXX",
"XXXX  XXXXXXXX      XX",
"XXXX  XXXXXXXXX    XXX",
"XXXXX   XXXXXXX   XXXX",
"XXXXXX    XXXXXX XXXXX",
"XXXXXXXX  XXXXXXXXXXXX",
"XXXXXXXXXXXXXXXXXXXXXX",
"XXXXXXXXXXXXXXXXXXXXXX",
"XXXXXXXXXXXXXXXXXXXXXX",
"XXXXXXXXXXXXXXXXXXXXXX"
};
