/* XPM */
static char *userview[] = {
/* width height ncolors chars_per_pixel */
"22 22 3 1",
/* colors */
"  c #000",
". c #FFF",
"X c None",
/* pixels */
"XXXXXXXXXXXXXXXXXXXXXX",
"XXXXXXXXXXXXXXXXXXXXXX",
"XXXXXXXXXXXXXXXXXXXXXX",
"XXXXXXXXXXXXXXXXXX XXX",
"XXX  XXXXXX        XXX",
"XXXX        ..... XXXX",
"XXXXXX .........  XXXX",
"XXXXXX    .....  XXXXX",
"XXXXXX     .... XXXXXX",
"XXXXXXX     ..  XXXXXX",
"XXXXXXX     .. XXXXXXX",
"XXXXXXX     .  XXXXXXX",
"XXXXXXXX    . XXXXXXXX",
"XXXXXXXX   .. XXXXXXXX",
"XXXXXXXXX  .  XXXXXXXX",
"XXXXXXXXXX   XXXXXXXXX",
"XXXXXXXXXXXX XXXXXXXXX",
"XXXXXXXXXXXX XXXXXXXXX",
"XXXXXXXXXXXXXXXXXXXXXX",
"XXXXXXXXXXXXXXXXXXXXXX",
"XXXXXXXXXXXXXXXXXXXXXX",
"XXXXXXXXXXXXXXXXXXXXXX"
};
