/* XPM */
static char * view_zr_xd_xpm[] = {
/* width height ncolors chars_per_pixel */
"22 22 3 1",
/* colors */
" 	c None",
".	c black",
"X	c white",
/* pixels */
"                      ",
"                      ",
"               .      ",
"               ..     ",
"    ..............    ",
"    .          ..     ",
"    .          .      ",
"    .                 ",
"    .         .....   ",
"    .           X..   ",
"    .          X.X    ",
"    .         ..X     ",
"    .         .....   ",
"    .                 ",
"    .                 ",
"    .   .. ..         ",
"  .....  ...          ",
"   ...    .           ",
"    .    ...          ",
"        .. ..         ",
"                      ",
"                      "};
