/* XPM */
static char * view_yl_xd_xpm[] = {
/* width height ncolors chars_per_pixel */
"22 22 2 1",
/* colors */
" 	c None",
".	c black",
/* pixels */
"                      ",
"                      ",
"      .               ",
"     ..               ",
"    ..............    ",
"     ..          .    ",
"      .          .    ",
"                 .    ",
"  .  .           .    ",
"  .  .           .    ",
"  .. .           .    ",
"   ...           .    ",
"     .           .    ",
"     .           .    ",
"  .  .           .    ",
"   ..    .. ..   .    ",
"          ...  .....  ",
"           .    ...   ",
"          ...    .    ",
"         .. ..        ",
"                      ",
"                      "};
