/* XPM */
static char * view_zl_xu_xpm[] = {
/* width height ncolors chars_per_pixel */
"22 22 3 1",
/* colors */
" 	c None",
".	c black",
"X	c white",
/* pixels */
"                      ",
"                      ",
"         .. ..        ",
"          ...    .    ",
"           .    ...   ",
"          ...  .....  ",
"         .. ..   .    ",
"                 .    ",
"                 .    ",
"   .....         .    ",
"      ..         .    ",
"     .X          .    ",
"   ..X           .    ",
"   .....         .    ",
"                 .    ",
"      .          .    ",
"     ..          .    ",
"    ..............    ",
"     ..               ",
"      .               ",
"                      ",
"                      "};
