/* XPM */
static char *dummy[]={
"32 32 6 1",
"d c #0000ff",
"# c #008000",
"a c #00ffff",
". c None",
"b c #ff0000",
"c c #ff00ff",
"................................",
"...............#a...............",
".............###aaa.............",
"...........####aaaaaa...........",
".........####..aa..aaaa.........",
"......#####....aa....aaaaa......",
"....#####......aa......aaaaa....",
"..####.........aa.........aaaa..",
".###...........aa...........aa#.",
".#bb...........aa...........###.",
".bbbb..........aa..........###a.",
".bb.bb.........aa.........##.aa.",
"..bb.bbb.......aa.......###.aa..",
"..bb..bbb......aa......###..aa..",
"..bb....bb....ccaa....##....aa..",
"...bb....bb..cccaaa..##....aa...",
"...bb.....bbbc....a###.....aa...",
"...bb.....cbbb....###a.....aa...",
"....bb..ccc..bb..##..aaa..aa....",
"....bb.ccc....bb##....aaa.aa....",
"....bbcc.......b#.......aaaa....",
".....cc........bb........ca.....",
"......cc.......bb.......cc......",
".......cc......bb......cc.......",
"........cb.....bb.....cc........",
".........bb....bb....cc.........",
"..........bb...bb...dc..........",
"...........bb..bb..dd...........",
"............bb.bb.dd............",
".............bbbbdd.............",
"..............bbbd..............",
"...............bb..............."};
