/* XPM */
static char *zoomin[] = {
/* width height ncolors chars_per_pixel */
"22 22 3 1",
/* colors */
"  c #000",
". c #FFF",
"X c None",
/* pixels */
"XXXXXXXXXXXXXXXXXXXXXX",
"XXXXXXXXXXXXXXXXXXXXXX",
"XXX XXXXXXXXXXXXXX XXX",
"XX   XXXXXXXXXXXX   XX",
"XXX   XX XXXX XX   XXX",
"XXXX   X XXXX X   XXXX",
"XXXXX    XXXX    XXXXX",
"XXXXXX   XXXX   XXXXXX",
"XXXX     XXXX     XXXX",
"XXXXXXXXXX  XXXXXXXXXX",
"XXXXXXXXX    XXXXXXXXX",
"XXXXXXXXX    XXXXXXXXX",
"XXXXXXXXXX  XXXXXXXXXX",
"XXXX     XXXX     XXXX",
"XXXXXX   XXXX   XXXXXX",
"XXXXX    XXXX    XXXXX",
"XXXX   X XXXX X   XXXX",
"XXX   XX XXXX XX   XXX",
"XX   XXXXXXXXXXXX   XX",
"XXX XXXXXXXXXXXXXX XXX",
"XXXXXXXXXXXXXXXXXXXXXX",
"XXXXXXXXXXXXXXXXXXXXXX"
};
