#define backview_width 20
#define backview_height 20
static unsigned char backview_bits[] = {
   0x00, 0x00, 0x00, 0x00, 0x12, 0x00, 0x00, 0x12, 0x00, 0x00, 0x16, 0x01,
   0x00, 0x9c, 0x03, 0x00, 0xd0, 0x07, 0x00, 0x10, 0x01, 0x00, 0x12, 0x01,
   0x36, 0x0c, 0x01, 0x1c, 0x00, 0x01, 0x08, 0x00, 0x01, 0x1c, 0x00, 0x01,
   0x36, 0x00, 0x01, 0x00, 0x00, 0x01, 0x10, 0x00, 0x01, 0x18, 0x00, 0x01,
   0xfc, 0xff, 0x01, 0x18, 0x00, 0x00, 0x10, 0x00, 0x00, 0x00, 0x00, 0x00};
