/* XPM */
static char *backview[] = {
/* width height ncolors chars_per_pixel */
"22 22 3 1",
/* colors */
"  c #000",
". c #FFF",
"X c None",
/* pixels */
"XXXXXXXXXXXXXXXXXXXXXX",
"XXXXXXXXXXXXXXXXXXXXXX",
"XXXXXXXXXX XX XXXXXXXX",
"XXXXXXXXXX XX XXXXXXXX",
"XXXXXXXXXX  X XXX XXXX",
"XXXXXXXXXXX   XX   XXX",
"XXXXXXXXXXXXX X     XX",
"XXXXXXXXXXXXX XXX XXXX",
"XXXXXXXXXX XX XXX XXXX",
"XX  X  XXXX  XXXX XXXX",
"XXX   XXXXXXXXXXX XXXX",
"XXXX XXXXXXXXXXXX XXXX",
"XXX   XXXXXXXXXXX XXXX",
"XX  X  XXXXXXXXXX XXXX",
"XXXXXXXXXXXXXXXXX XXXX",
"XXXXX XXXXXXXXXXX XXXX",
"XXXX  XXXXXXXXXXX XXXX",
"XXX               XXXX",
"XXXX  XXXXXXXXXXXXXXXX",
"XXXXX XXXXXXXXXXXXXXXX",
"XXXXXXXXXXXXXXXXXXXXXX",
"XXXXXXXXXXXXXXXXXXXXXX"
};
