/* XPM */
static char *bottomview[] = {
/* width height ncolors chars_per_pixel */
"22 22 3 1",
/* colors */
"  c #000",
". c #FFF",
"X c None",
/* pixels */
"XXXXXXXXXXXXXXXXXXXXXX",
"XXXXXXXXXXXXXXXXXXXXXX",
"XXXXXXXXXXXXXXXXXXXXXX",
"XXXXXXXX     XXXXXXXXX",
"XXXX XXXXXX  XXXXXXXXX",
"XXX   XXXX XXXXXXXXXXX",
"XX     X  XXXXXXXXXXXX",
"XXXX XXX     XXXXXXXXX",
"XXXX XXXXXXXXXXXXXXXXX",
"XXXX XXXXXXXXXX  X  XX",
"XXXX XXXXXXXXXXX   XXX",
"XXXX XXXXXXXXXXXX XXXX",
"XXXX XXXXXXXXXXX   XXX",
"XXXX XXXXXXXXXX  X  XX",
"XXXX XXXXXXXXXXXXXXXXX",
"XXXX XXXXXXXXXXX XXXXX",
"XXXX XXXXXXXXXXX  XXXX",
"XXXX               XXX",
"XXXXXXXXXXXXXXXX  XXXX",
"XXXXXXXXXXXXXXXX XXXXX",
"XXXXXXXXXXXXXXXXXXXXXX",
"XXXXXXXXXXXXXXXXXXXXXX"
};
