#define bottomview_width 20
#define bottomview_height 20
static unsigned char bottomview_bits[] = {
   0x00, 0x00, 0x00, 0x00, 0x00, 0x00, 0x80, 0x0f, 0x00, 0x08, 0x0c, 0x00,
   0x1c, 0x02, 0x00, 0xbe, 0x01, 0x00, 0x88, 0x0f, 0x00, 0x08, 0x00, 0x00,
   0x08, 0xc0, 0x06, 0x08, 0x80, 0x03, 0x08, 0x00, 0x01, 0x08, 0x80, 0x03,
   0x08, 0xc0, 0x06, 0x08, 0x00, 0x00, 0x08, 0x80, 0x00, 0x08, 0x80, 0x01,
   0xf8, 0xff, 0x03, 0x00, 0x80, 0x01, 0x00, 0x80, 0x00, 0x00, 0x00, 0x00};
