#define ff_width 20
#define ff_height 20
static unsigned char ff_bits[] = {
   0x00, 0x00, 0x00, 0x00, 0x00, 0x00, 0x08, 0x02, 0x00, 0x18, 0x06, 0x00,
   0x38, 0x0e, 0x00, 0x78, 0x1e, 0x00, 0xf8, 0x3e, 0x00, 0xf8, 0x7f, 0x00,
   0xf8, 0xff, 0x00, 0xf8, 0xff, 0x01, 0xf8, 0xff, 0x01, 0xf8, 0xff, 0x00,
   0xf8, 0x7f, 0x00, 0xf8, 0x3e, 0x00, 0x78, 0x1e, 0x00, 0x38, 0x0e, 0x00,
   0x18, 0x06, 0x00, 0x08, 0x02, 0x00, 0x00, 0x00, 0x00, 0x00, 0x00, 0x00};
