/* XPM */
static char *dummy[]={
"32 32 6 1",
"a c #0000ff",
"d c #00ff00",
"b c #00ffff",
". c None  	",
"c c #ff0000",
"# c #ff00ff",
"................................",
"................................",
"................................",
"..................#a............",
".............aaaaaaaab..........",
"........#aaaaaaaaaaaaaa.........",
"....aaaaaaaaaaaaaaaaaaaa........",
"....caaaaaaaaaaaaaaaaaaaa.......",
"....caaaaaaaaaaaaaaaaaaaaaa.....",
"....ccaaaaaaaaaaaaaaaaaaaaaa....",
".....ccaaaaaaaaaaaaaaaaaaaaaa...",
".....ccaaaaaaaaaaaaaaaaaadddd...",
".....cccaaaaaaaaaaaaaaddddddd...",
".....ccccaaaaaaaaaddddddddddd...",
".....ccccaaaaaddddddddddddddd...",
".....cccccddddddddddddddddddb...",
"......ccccddddddddddddddddddb...",
"......ccccdddddddddddddddddd....",
"......ccccdddddddddddddddddd....",
"......ccccdddddddddddddddddd....",
"......ccccdddddddddddddddddd....",
".......cccdddddddddddddddddd....",
".......ccccddddddddddddddddd....",
"........cccddddddddddddddddd....",
"........cccddddddddddddddddb....",
".........ccdddddddddddddddd.....",
".........ccddddddddddddd........",
"..........cdddddddddd...........",
"..........cddddddd..............",
"...........ddddd................",
"...........dd...................",
"................................"};
