/* XPM */
static char *dummy[]={
"32 32 4 1",
"b c #0000ff",
"# c #008000",
". c #d3d3d3",
"a c #ff0000",
"................................",
"................................",
"................................",
"..............####..............",
"............########............",
".........##############.........",
".......##################.......",
".....######################.....",
"...##########################...",
"..a##########################b..",
"..aa########################bb..",
"...aa######################bb...",
"...aaa####################bbb...",
"...aaaaa################bbbbb...",
"....aaaaa##############bbbbb....",
"....aaaaaa############bbbbbb....",
"....aaaaaaaa########bbbbbbbb....",
".....aaaaaaaa######bbbbbbbb.....",
".....aaaaaaaaa####bbbbbbbbb.....",
".....aaaaaaaaaa##bbbbbbbbbb.....",
"......aaaaaaaaaabbbbbbbbbb......",
"......aaaaaaaaaabbbbbbbbbb......",
".......aaaaaaaaabbbbbbbbb.......",
"........aaaaaaaabbbbbbbb........",
".........aaaaaaabbbbbbb.........",
"..........aaaaaabbbbbb..........",
"...........aaaaabbbbb...........",
"............aaaabbbb............",
".............aaabbb.............",
"..............aabb..............",
"...............ab...............",
"................................"};
