/* XPM */
static char *dummy[]={
"32 32 4 1",
"b c #0000ff",
"# c #008000",
". c None",
"a c #ff0000",
"................................",
"................................",
"...............##...............",
".............######.............",
"...........##########...........",
".........##############.........",
"......####################......",
"....########################....",
"..############################..",
"..############################..",
"..aa########################bb..",
"..aaa######################bbb..",
"...aaa####################bbb...",
"...aaaaa################bbbbb...",
"...aaaaaa##############bbbbbb...",
"....aaaaaa############bbbbbb....",
"....aaaaaaa##########bbbbbbb....",
"....aaaaaaaaa######bbbbbbbbb....",
".....aaaaaaaaa####bbbbbbbbb.....",
".....aaaaaaaaaa##bbbbbbbbbb.....",
".....aaaaaaaaaaabbbbbbbbbbb.....",
"......aaaaaaaaaabbbbbbbbbb......",
".......aaaaaaaaabbbbbbbbb.......",
"........aaaaaaaabbbbbbbb........",
".........aaaaaaabbbbbbb.........",
"..........aaaaaabbbbbb..........",
"...........aaaaabbbbb...........",
"............aaaabbbb............",
".............aaabbb.............",
"..............aabb..............",
"...............ab...............",
"................................"};
