#define frontview_width 20
#define frontview_height 20
static unsigned char frontview_bits[] = {
   0x00, 0x00, 0x00, 0x40, 0x02, 0x00, 0x40, 0x02, 0x00, 0xc8, 0x02, 0x00,
   0x9c, 0x03, 0x00, 0x3e, 0x02, 0x00, 0x08, 0x02, 0x00, 0x48, 0x02, 0x00,
   0x88, 0xc1, 0x06, 0x08, 0x80, 0x03, 0x08, 0x00, 0x01, 0x08, 0x80, 0x03,
   0x08, 0xc0, 0x06, 0x08, 0x00, 0x00, 0x08, 0x80, 0x00, 0x08, 0x80, 0x01,
   0xf8, 0xff, 0x03, 0x00, 0x80, 0x01, 0x00, 0x80, 0x00, 0x00, 0x00, 0x00};
