/* XPM */
static char *happy[] = {
/* width height ncolors chars_per_pixel */
"22 22 3 1",
/* colors */
"  c #000",
". c #FFF",
"X c None",
/* pixels */
"XXXXXXXXXXXXXXXXXXXXXX",
"XXXXXXXXXXXXXXXXXXXXXX",
"XXXXXXXXXXXXXXXXXXXXXX",
"XXXXXX  XXXXXX  XXXXXX",
"XXXXX XX XXXX XX XXXXX",
"XXXXXXXXXXXXXXXXXXXXXX",
"XXXXXX  XXXXXX  XXXXXX",
"XXXXXX  XXXXXX  XXXXXX",
"XXXXXXXXXXXXXXXXXXXXXX",
"XXXXXXXXXXXXXXXXXXXXXX",
"XXXXXXXXXXXXXXXXXXXXXX",
"XXXXXXXXXXXXXXXXXXXXXX",
"XXXX  XXXXXXXXXX  XXXX",
"XXXXX   XXXXXX   XXXXX",
"XXXXXX .      . XXXXXX",
"XXXXXX ........ XXXXXX",
"XXXXXXX  ....  XXXXXXX",
"XXXXXXXXX    XXXXXXXXX",
"XXXXXXXXXXXXXXXXXXXXXX",
"XXXXXXXXXXXXXXXXXXXXXX",
"XXXXXXXXXXXXXXXXXXXXXX",
"XXXXXXXXXXXXXXXXXXXXXX"
};
