#define happy_width 20
#define happy_height 20
static unsigned char happy_bits[] = {
   0x00, 0x00, 0x00, 0x00, 0x00, 0x00, 0x60, 0x60, 0x00, 0x90, 0x90, 0x00,
   0x00, 0x00, 0x00, 0x60, 0x60, 0x00, 0x60, 0x60, 0x00, 0x00, 0x00, 0x00,
   0x00, 0x00, 0x00, 0x00, 0x00, 0x00, 0x04, 0x00, 0x02, 0x0c, 0x00, 0x03,
   0x18, 0x80, 0x01, 0x38, 0xc0, 0x01, 0xf0, 0xff, 0x00, 0xc0, 0x3f, 0x00,
   0x00, 0x00, 0x00, 0x00, 0x00, 0x00, 0x00, 0x00, 0x00, 0x00, 0x00, 0x00};
