#define happy_width 22
#define happy_height 22
static unsigned char happy_bits[] = {
   0x00, 0x00, 0x00, 0x00, 0x00, 0x00, 0x00, 0x00, 0x00, 0xc0, 0xc0, 0x00,
   0x20, 0x21, 0x01, 0x00, 0x00, 0x00, 0xc0, 0xc0, 0x00, 0xc0, 0xc0, 0x00,
   0x00, 0x00, 0x00, 0x00, 0x00, 0x00, 0x00, 0x00, 0x00, 0x00, 0x00, 0x00,
   0x30, 0x00, 0x03, 0xe0, 0xc0, 0x01, 0x40, 0xbf, 0x00, 0x40, 0x80, 0x00,
   0x80, 0x61, 0x00, 0x00, 0x1e, 0x00, 0x00, 0x00, 0x00, 0x00, 0x00, 0x00,
   0x00, 0x00, 0x00, 0x00, 0x00, 0x00};
