#define home_width 20
#define home_height 20
static unsigned char home_bits[] = {
   0x00, 0x00, 0x00, 0x30, 0x00, 0x00, 0x30, 0x06, 0x00, 0xb0, 0x1f, 0x00,
   0xf0, 0x7f, 0x00, 0xf8, 0xff, 0x01, 0xfc, 0xff, 0x03, 0x10, 0x80, 0x00,
   0x10, 0xb8, 0x00, 0x10, 0xa8, 0x00, 0x10, 0xb8, 0x00, 0x10, 0x80, 0x00,
   0x10, 0x87, 0x00, 0x10, 0x85, 0x00, 0x10, 0x85, 0x00, 0x10, 0x85, 0x00,
   0x10, 0x85, 0x00, 0xf0, 0xfd, 0x00, 0x00, 0x00, 0x00, 0x00, 0x00, 0x00};
