#define home_width 22
#define home_height 22

static unsigned char home_bits[] = {
 0x00, 0x00, 0x00, 0x00, 0x00, 0x00, 0x60, 0x00, 0x00, 0x60, 0x0c, 0x00,
 0x60, 0x3f, 0x00, 0xe0, 0xff, 0x00, 0xf0, 0xff, 0x03, 0xf8, 0xff, 0x07,
 0x20, 0x00, 0x01, 0x20, 0x70, 0x01, 0x20, 0x50, 0x01, 0x20, 0x70, 0x01,
 0x20, 0x00, 0x01, 0x20, 0x0e, 0x01, 0x20, 0x0a, 0x01, 0x20, 0x0a, 0x01,
 0x20, 0x0a, 0x01, 0x20, 0x0a, 0x01, 0xe0, 0xfb, 0x01, 0x00, 0x00, 0x00,
 0x00, 0x00, 0x00, 0x00, 0x00, 0x00 };
