#define isoview_width 20
#define isoview_height 20
static unsigned char isoview_bits[] = {
   0x00, 0x00, 0x00, 0x00, 0x06, 0x00, 0x00, 0x0f, 0x00, 0x80, 0x1f, 0x00,
   0x00, 0x06, 0x00, 0x00, 0x06, 0x00, 0x00, 0x06, 0x00, 0x00, 0x06, 0x00,
   0x00, 0x06, 0x00, 0x00, 0x06, 0x00, 0x00, 0x0f, 0x00, 0x80, 0x19, 0x00,
   0xe0, 0x70, 0x00, 0x32, 0xc0, 0x04, 0x1e, 0x80, 0x07, 0x0e, 0x00, 0x07,
   0x1e, 0x80, 0x07, 0x00, 0x00, 0x00, 0x00, 0x00, 0x00, 0x00, 0x00, 0x00};
