#define isoview_width 22
#define isoview_height 22

static unsigned char isoview_bits[] = {
 0x00, 0x00, 0x00, 0x00, 0x00, 0x00, 0x00, 0x0c, 0x00, 0x00, 0x1e, 0x00,
 0x00, 0x3f, 0x00, 0x00, 0x0c, 0x00, 0x00, 0x0c, 0x00, 0x00, 0x0c, 0x00,
 0x00, 0x0c, 0x00, 0x00, 0x0c, 0x00, 0x00, 0x0c, 0x00, 0x00, 0x1e, 0x00,
 0x00, 0x33, 0x00, 0xc0, 0xe1, 0x00, 0x64, 0x80, 0x09, 0x3c, 0x00, 0x0f,
 0x1c, 0x00, 0x0e, 0x3c, 0x00, 0x0f, 0x00, 0x00, 0x00, 0x00, 0x00, 0x00,
 0x00, 0x00, 0x00, 0x00, 0x00, 0x00 };
