/* XPM */
static char *left[] = {
/* width height ncolors chars_per_pixel */
"22 22 3 1",
/* colors */
"  c #000",
". c #FFF",
"X c None",
/* pixels */
"XXXXXXXXXXXXXXXXXXXXXX",
"XXXXXXXXXXXXXXXXXXXXXX",
"XXXXXXXXXXXXXXXXXXXXXX",
"XXXXXXXXXXXXXXXXXXXXXX",
"XXXXXXXXXXXXXXXXXXXXXX",
"XXXXXXXXXXXXXXXXXXXXXX",
"XXXXXXX XXXXXXXXXXXXXX",
"XXXXXX  XXXXXXXXXXXXXX",
"XXXXX   XXXXXXXXXXXXXX",
"XXXX    XXXXXXXXXXXXXX",
"XXX                XXX",
"XXX                XXX",
"XXXX    XXXXXXXXXXXXXX",
"XXXXX   XXXXXXXXXXXXXX",
"XXXXXX  XXXXXXXXXXXXXX",
"XXXXXXX XXXXXXXXXXXXXX",
"XXXXXXXXXXXXXXXXXXXXXX",
"XXXXXXXXXXXXXXXXXXXXXX",
"XXXXXXXXXXXXXXXXXXXXXX",
"XXXXXXXXXXXXXXXXXXXXXX",
"XXXXXXXXXXXXXXXXXXXXXX",
"XXXXXXXXXXXXXXXXXXXXXX"
};
