#define leftview_width 22
#define leftview_height 22

static unsigned char leftview_bits[] = {
 0x00, 0x00, 0x00, 0x00, 0x00, 0x00, 0x80, 0x04, 0x00, 0x80, 0x04, 0x00,
 0x90, 0x05, 0x00, 0x38, 0x07, 0x00, 0x7c, 0x04, 0x00, 0x10, 0x04, 0x00,
 0x90, 0x04, 0x00, 0x10, 0x83, 0x0f, 0x10, 0x00, 0x0c, 0x10, 0x00, 0x02,
 0x10, 0x80, 0x01, 0x10, 0x80, 0x0f, 0x10, 0x00, 0x00, 0x10, 0x00, 0x01,
 0x10, 0x00, 0x03, 0xf0, 0xff, 0x07, 0x00, 0x00, 0x03, 0x00, 0x00, 0x01,
 0x00, 0x00, 0x00, 0x00, 0x00, 0x00 };
