#define left_width 20
#define left_height 20
static unsigned char left_bits[] = {
   0x00, 0x00, 0x00, 0x00, 0x00, 0x00, 0x00, 0x00, 0x00, 0x00, 0x00, 0x00,
   0x00, 0x00, 0x00, 0x40, 0x00, 0x00, 0x60, 0x00, 0x00, 0x70, 0x00, 0x00,
   0x78, 0x00, 0x00, 0xfc, 0xff, 0x03, 0xfc, 0xff, 0x03, 0x78, 0x00, 0x00,
   0x70, 0x00, 0x00, 0x60, 0x00, 0x00, 0x40, 0x00, 0x00, 0x00, 0x00, 0x00,
   0x00, 0x00, 0x00, 0x00, 0x00, 0x00, 0x00, 0x00, 0x00, 0x00, 0x00, 0x00};
