/* XPM */
static char *leftview[] = {
/* width height ncolors chars_per_pixel */
"22 22 3 1",
/* colors */
"  c #000",
". c #FFF",
"X c None",
/* pixels */
"XXXXXXXXXXXXXXXXXXXXXX",
"XXXXXXXXXXXXXXXXXXXXXX",
"XXXXXXX XX XXXXXXXXXXX",
"XXXXXXX XX XXXXXXXXXXX",
"XXXX XX  X XXXXXXXXXXX",
"XXX   XX   XXXXXXXXXXX",
"XX     XXX XXXXXXXXXXX",
"XXXX XXXXX XXXXXXXXXXX",
"XXXX XX XX XXXXXXXXXXX",
"XXXX XXX  XXXXX     XX",
"XXXX XXXXXXXXXXXXX  XX",
"XXXX XXXXXXXXXXXX XXXX",
"XXXX XXXXXXXXXX  XXXXX",
"XXXX XXXXXXXXXX     XX",
"XXXX XXXXXXXXXXXXXXXXX",
"XXXX XXXXXXXXXXX XXXXX",
"XXXX XXXXXXXXXXX  XXXX",
"XXXX               XXX",
"XXXXXXXXXXXXXXXX  XXXX",
"XXXXXXXXXXXXXXXX XXXXX",
"XXXXXXXXXXXXXXXXXXXXXX",
"XXXXXXXXXXXXXXXXXXXXXX"
};
