#define nextstop_width 22
#define nextstop_height 22

static unsigned char nextstop_bits[] = {
 0x00, 0x00, 0x00, 0x00, 0x00, 0x00, 0x00, 0x00, 0x00, 0x80, 0x80, 0x01,
 0x80, 0x81, 0x01, 0x80, 0x83, 0x01, 0x80, 0x87, 0x01, 0x80, 0x8f, 0x01,
 0x80, 0x9f, 0x01, 0x80, 0xbf, 0x01, 0x80, 0xff, 0x01, 0x80, 0xff, 0x01,
 0x80, 0xbf, 0x01, 0x80, 0x9f, 0x01, 0x80, 0x8f, 0x01, 0x80, 0x87, 0x01,
 0x80, 0x83, 0x01, 0x80, 0x81, 0x01, 0x80, 0x80, 0x01, 0x00, 0x00, 0x00,
 0x00, 0x00, 0x00, 0x00, 0x00, 0x00 };
