#define nextstop_width 20
#define nextstop_height 20

static unsigned char nextstop_bits[] = {
 0x00, 0x00, 0x00, 0x00, 0x00, 0x00, 0x40, 0xc0, 0x00, 0xc0, 0xc0, 0x00,
 0xc0, 0xc1, 0x00, 0xc0, 0xc3, 0x00, 0xc0, 0xc7, 0x00, 0xc0, 0xcf, 0x00,
 0xc0, 0xdf, 0x00, 0xc0, 0xff, 0x00, 0xc0, 0xff, 0x00, 0xc0, 0xdf, 0x00,
 0xc0, 0xcf, 0x00, 0xc0, 0xc7, 0x00, 0xc0, 0xc3, 0x00, 0xc0, 0xc1, 0x00,
 0xc0, 0xc0, 0x00, 0x40, 0xc0, 0x00, 0x00, 0x00, 0x00, 0x00, 0x00, 0x00
 };
