#define next_width 22
#define next_height 22

static unsigned char next_bits[] = {
 0x00, 0x00, 0x00, 0x00, 0x00, 0x00, 0x00, 0x00, 0x00, 0x80, 0x00, 0x00,
 0x80, 0x01, 0x00, 0x80, 0x03, 0x00, 0x80, 0x07, 0x00, 0x80, 0x0f, 0x00,
 0x80, 0x1f, 0x00, 0x80, 0x3f, 0x00, 0x80, 0x7f, 0x00, 0x80, 0x7f, 0x00,
 0x80, 0x3f, 0x00, 0x80, 0x1f, 0x00, 0x80, 0x0f, 0x00, 0x80, 0x07, 0x00,
 0x80, 0x03, 0x00, 0x80, 0x01, 0x00, 0x80, 0x00, 0x00, 0x00, 0x00, 0x00,
 0x00, 0x00, 0x00, 0x00, 0x00, 0x00 };
