#define prev_width 22
#define prev_height 22

static unsigned char prev_bits[] = {
 0x00, 0x00, 0x00, 0x00, 0x00, 0x00, 0x00, 0x00, 0x00, 0x00, 0x40, 0x00,
 0x00, 0x60, 0x00, 0x00, 0x70, 0x00, 0x00, 0x78, 0x00, 0x00, 0x7c, 0x00,
 0x00, 0x7e, 0x00, 0x00, 0x7f, 0x00, 0x80, 0x7f, 0x00, 0x80, 0x7f, 0x00,
 0x00, 0x7f, 0x00, 0x00, 0x7e, 0x00, 0x00, 0x7c, 0x00, 0x00, 0x78, 0x00,
 0x00, 0x70, 0x00, 0x00, 0x60, 0x00, 0x00, 0x40, 0x00, 0x00, 0x00, 0x00,
 0x00, 0x00, 0x00, 0x00, 0x00, 0x00 };
