/* XPM */
static char *prev[] = {
/* width height ncolors chars_per_pixel */
"22 22 3 1",
/* colors */
"  c #000",
". c #FFF",
"X c None",
/* pixels */
"XXXXXXXXXXXXXXXXXXXXXX",
"XXXXXXXXXXXXXXXXXXXXXX",
"XXXXXXXXXXXXXXXXXXXXXX",
"XXXXXXXXXXXXXX XXXXXXX",
"XXXXXXXXXXXXX  XXXXXXX",
"XXXXXXXXXXXX   XXXXXXX",
"XXXXXXXXXXX    XXXXXXX",
"XXXXXXXXXX     XXXXXXX",
"XXXXXXXXX      XXXXXXX",
"XXXXXXXX       XXXXXXX",
"XXXXXXX        XXXXXXX",
"XXXXXXX        XXXXXXX",
"XXXXXXXX       XXXXXXX",
"XXXXXXXXX      XXXXXXX",
"XXXXXXXXXX     XXXXXXX",
"XXXXXXXXXXX    XXXXXXX",
"XXXXXXXXXXXX   XXXXXXX",
"XXXXXXXXXXXXX  XXXXXXX",
"XXXXXXXXXXXXXX XXXXXXX",
"XXXXXXXXXXXXXXXXXXXXXX",
"XXXXXXXXXXXXXXXXXXXXXX",
"XXXXXXXXXXXXXXXXXXXXXX"
};
