#define prev_width 20
#define prev_height 20
static unsigned char prev_bits[] = {
   0x00, 0x00, 0x00, 0x00, 0x00, 0x00, 0x00, 0x20, 0x00, 0x00, 0x30, 0x00,
   0x00, 0x38, 0x00, 0x00, 0x3c, 0x00, 0x00, 0x3e, 0x00, 0x00, 0x3f, 0x00,
   0x80, 0x3f, 0x00, 0xc0, 0x3f, 0x00, 0xc0, 0x3f, 0x00, 0x80, 0x3f, 0x00,
   0x00, 0x3f, 0x00, 0x00, 0x3e, 0x00, 0x00, 0x3c, 0x00, 0x00, 0x38, 0x00,
   0x00, 0x30, 0x00, 0x00, 0x20, 0x00, 0x00, 0x00, 0x00, 0x00, 0x00, 0x00};
