/* XPM */
static char *next[] = {
/* width height ncolors chars_per_pixel */
"22 22 3 1",
/* colors */
"  c #000",
". c #FFF",
"X c None",
/* pixels */
"XXXXXXXXXXXXXXXXXXXXXX",
"XXXXXXXXXXXXXXXXXXXXXX",
"XXXXXXXX     XXXXXXXXX",
"XXXXXX         XXXXXXX",
"XXXXXX  XXXXX   XXXXXX",
"XXXXX  XXXXXXX  XXXXXX",
"XXXXXX XXXXXXX  XXXXXX",
"XXXXXXXXXXXXXX  XXXXXX",
"XXXXXXXXXXXXX   XXXXXX",
"XXXXXXXXXXXXX  XXXXXXX",
"XXXXXXXXXXX   XXXXXXXX",
"XXXXXXXXXX  XXXXXXXXXX",
"XXXXXXXXX  XXXXXXXXXXX",
"XXXXXXXXX  XXXXXXXXXXX",
"XXXXXXXXX  XXXXXXXXXXX",
"XXXXXXXXX  XXXXXXXXXXX",
"XXXXXXXXXXXXXXXXXXXXXX",
"XXXXXXXXXXXXXXXXXXXXXX",
"XXXXXXXXX  XXXXXXXXXXX",
"XXXXXXXXX  XXXXXXXXXXX",
"XXXXXXXXXXXXXXXXXXXXXX",
"XXXXXXXXXXXXXXXXXXXXXX"
};
