#define right_width 22
#define right_height 22

static unsigned char right_bits[] = {
 0x00, 0x00, 0x00, 0x00, 0x00, 0x00, 0x00, 0x00, 0x00, 0x00, 0x00, 0x00,
 0x00, 0x00, 0x00, 0x00, 0x00, 0x00, 0x00, 0x40, 0x00, 0x00, 0xc0, 0x00,
 0x00, 0xc0, 0x01, 0x00, 0xc0, 0x03, 0xf8, 0xff, 0x07, 0xf8, 0xff, 0x07,
 0x00, 0xc0, 0x03, 0x00, 0xc0, 0x01, 0x00, 0xc0, 0x00, 0x00, 0x40, 0x00,
 0x00, 0x00, 0x00, 0x00, 0x00, 0x00, 0x00, 0x00, 0x00, 0x00, 0x00, 0x00,
 0x00, 0x00, 0x00, 0x00, 0x00, 0x00 };
