/* right arrow (C) B. Verhegghe */
#define right_width 20
#define right_height 20
static unsigned char right_bits[] = {
   0x00, 0x00, 0x00, 0x00, 0x00, 0x00, 0x00, 0x00, 0x00, 0x00, 0x00, 0x00,
   0x00, 0x00, 0x00, 0x00, 0x20, 0x00, 0x00, 0x60, 0x00, 0x00, 0xe0, 0x00,
   0x00, 0xe0, 0x01, 0xfc, 0xff, 0x03, 0xfc, 0xff, 0x03, 0x00, 0xe0, 0x01,
   0x00, 0xe0, 0x00, 0x00, 0x60, 0x00, 0x00, 0x20, 0x00, 0x00, 0x00, 0x00,
   0x00, 0x00, 0x00, 0x00, 0x00, 0x00, 0x00, 0x00, 0x00, 0x00, 0x00, 0x00};
