/* XPM */
static char *rightview[] = {
/* width height ncolors chars_per_pixel */
"22 22 3 1",
/* colors */
"  c #000",
". c #FFF",
"X c None",
/* pixels */
"XXXXXXXXXXXXXXXXXXXXXX",
"XXXXXXXXXXXXXXXXXXXXXX",
"XXXXXXXXXX XX XXXXXXXX",
"XXXXXXXXXX XX XXXXXXXX",
"XXXXXXXXXX  X XXX XXXX",
"XXXXXXXXXXX   XX   XXX",
"XXXXXXXXXXXXX X     XX",
"XXXXXXXXXXXXX XXX XXXX",
"XXXXXXXXXX XX XXX XXXX",
"XX     XXXX  XXXX XXXX",
"XXXXX  XXXXXXXXXX XXXX",
"XXXX XXXXXXXXXXXX XXXX",
"XX  XXXXXXXXXXXXX XXXX",
"XX     XXXXXXXXXX XXXX",
"XXXXXXXXXXXXXXXXX XXXX",
"XXXXX XXXXXXXXXXX XXXX",
"XXXX  XXXXXXXXXXX XXXX",
"XXX               XXXX",
"XXXX  XXXXXXXXXXXXXXXX",
"XXXXX XXXXXXXXXXXXXXXX",
"XXXXXXXXXXXXXXXXXXXXXX",
"XXXXXXXXXXXXXXXXXXXXXX"
};
