#define rotdown_width 20
#define rotdown_height 20
static unsigned char rotdown_bits[] = {
   0x00, 0x00, 0x00, 0x00, 0x00, 0x00, 0x00, 0x07, 0x00, 0xc0, 0x1f, 0x00,
   0xe0, 0x38, 0x00, 0x60, 0x70, 0x00, 0x30, 0x60, 0x00, 0x30, 0x20, 0x00,
   0x30, 0x00, 0x00, 0xb6, 0xff, 0x07, 0x30, 0x00, 0x00, 0x30, 0x00, 0x00,
   0x30, 0x7e, 0x00, 0x30, 0x7c, 0x00, 0x60, 0x78, 0x00, 0xe0, 0x7c, 0x00,
   0xc0, 0x6f, 0x00, 0x00, 0x47, 0x00, 0x00, 0x00, 0x00, 0x00, 0x00, 0x00};
