#define rotdown_width 22
#define rotdown_height 22

static unsigned char rotdown_bits[] = {
 0x00, 0x00, 0x00, 0x00, 0x00, 0x00, 0x00, 0x00, 0x00, 0x00, 0x0e, 0x00,
 0x80, 0x3f, 0x00, 0xc0, 0x71, 0x00, 0xc0, 0xe0, 0x00, 0x60, 0xc0, 0x00,
 0x60, 0x40, 0x00, 0x60, 0x00, 0x00, 0x6c, 0xff, 0x0f, 0x60, 0x00, 0x00,
 0x60, 0x00, 0x00, 0x60, 0xfc, 0x00, 0x60, 0xf8, 0x00, 0xc0, 0xf0, 0x00,
 0xc0, 0xf9, 0x00, 0x80, 0xdf, 0x00, 0x00, 0x8e, 0x00, 0x00, 0x00, 0x00,
 0x00, 0x00, 0x00, 0x00, 0x00, 0x00 };
