/* XPM */
static char *rotdown[] = {
/* width height ncolors chars_per_pixel */
"22 22 3 1",
/* colors */
"  c #000",
". c #FFF",
"X c None",
/* pixels */
"XXXXXXXXXXXXXXXXXXXXXX",
"XXXXXXXXXXXXXXXXXXXXXX",
"XXXXXXXXXXXXXXXXXXXXXX",
"XXXXXXXXX   XXXXXXXXXX",
"XXXXXXX       XXXXXXXX",
"XXXXXX   XXX   XXXXXXX",
"XXXXXX  XXXXX   XXXXXX",
"XXXXX  XXXXXXX  XXXXXX",
"XXXXX  XXXXXXX XXXXXXX",
"XXXXX  XXXXXXXXXXXXXXX",
"XX  X  X            XX",
"XXXXX  XXXXXXXXXXXXXXX",
"XXXXX  XXXXXXXXXXXXXXX",
"XXXXX  XXX      XXXXXX",
"XXXXX  XXXX     XXXXXX",
"XXXXXX  XXXX    XXXXXX",
"XXXXXX   XX     XXXXXX",
"XXXXXXX      X  XXXXXX",
"XXXXXXXXX   XXX XXXXXX",
"XXXXXXXXXXXXXXXXXXXXXX",
"XXXXXXXXXXXXXXXXXXXXXX",
"XXXXXXXXXXXXXXXXXXXXXX"
};
