/* XPM */
static char *rotleft[] = {
/* width height ncolors chars_per_pixel */
"22 22 3 1",
/* colors */
"  c #000",
". c #FFF",
"X c None",
/* pixels */
"XXXXXXXXXXXXXXXXXXXXXX",
"XXXXXXXXXXXXXXXXXXXXXX",
"XXXXXXXXXXX XXXXXXXXXX",
"XXXXXXXXXXX XXXXXXXXXX",
"XXXXXXXXXXX XXXXXXXXXX",
"XXXXXXXXXXX XXXXXXXXXX",
"XXX      XX XX  XXXXXX",
"XXXX     XX X    XXXXX",
"XXXXX    XX XXX   XXXX",
"XXXX     XX XXXX  XXXX",
"XXX   X  XX XXXXX  XXX",
"XXX  XXX XX XXXXX  XXX",
"XXX  XXXXXX XXXXX  XXX",
"XXXX  XXXXX XXXX  XXXX",
"XXXX   XXXXXXXX   XXXX",
"XXXXX            XXXXX",
"XXXXXXX        XXXXXXX",
"XXXXXXXXXXXXXXXXXXXXXX",
"XXXXXXXXXXX XXXXXXXXXX",
"XXXXXXXXXXX XXXXXXXXXX",
"XXXXXXXXXXXXXXXXXXXXXX",
"XXXXXXXXXXXXXXXXXXXXXX"
};
