#define rotleft_width 20
#define rotleft_height 20
static unsigned char rotleft_bits[] = {
   0x00, 0x00, 0x00, 0x00, 0x04, 0x00, 0x00, 0x04, 0x00, 0x00, 0x04, 0x00,
   0x00, 0x04, 0x00, 0xfc, 0x64, 0x00, 0xf8, 0xf4, 0x00, 0xf0, 0xc4, 0x01,
   0xf8, 0x84, 0x01, 0xdc, 0x04, 0x03, 0x8c, 0x04, 0x03, 0x0c, 0x04, 0x03,
   0x18, 0x84, 0x01, 0x38, 0xc0, 0x01, 0xf0, 0xff, 0x00, 0xc0, 0x3f, 0x00,
   0x00, 0x00, 0x00, 0x00, 0x04, 0x00, 0x00, 0x04, 0x00, 0x00, 0x00, 0x00};
