#define rotleft_width 22
#define rotleft_height 22

static unsigned char rotleft_bits[] = {
 0x00, 0x00, 0x00, 0x00, 0x00, 0x00, 0x00, 0x08, 0x00, 0x00, 0x08, 0x00,
 0x00, 0x08, 0x00, 0x00, 0x08, 0x00, 0xf8, 0xc9, 0x00, 0xf0, 0xe9, 0x01,
 0xe0, 0x89, 0x03, 0xf0, 0x09, 0x03, 0xb8, 0x09, 0x06, 0x18, 0x09, 0x06,
 0x18, 0x08, 0x06, 0x30, 0x08, 0x03, 0x70, 0x80, 0x03, 0xe0, 0xff, 0x01,
 0x80, 0x7f, 0x00, 0x00, 0x00, 0x00, 0x00, 0x08, 0x00, 0x00, 0x08, 0x00,
 0x00, 0x00, 0x00, 0x00, 0x00, 0x00 };
