#define rotright_width 22
#define rotright_height 22

static unsigned char rotright_bits[] = {
 0x00, 0x00, 0x00, 0x00, 0x00, 0x00, 0x00, 0x04, 0x00, 0x00, 0x04, 0x00,
 0x00, 0x04, 0x00, 0x00, 0x04, 0x00, 0xc0, 0xe4, 0x07, 0xe0, 0xe5, 0x03,
 0x70, 0xe4, 0x01, 0x30, 0xe4, 0x03, 0x18, 0x64, 0x07, 0x18, 0x24, 0x06,
 0x18, 0x04, 0x06, 0x30, 0x04, 0x03, 0x70, 0x84, 0x03, 0xe0, 0xff, 0x01,
 0x80, 0x7f, 0x00, 0x00, 0x04, 0x00, 0x00, 0x04, 0x00, 0x00, 0x04, 0x00,
 0x00, 0x00, 0x00, 0x00, 0x00, 0x00 };
