#define rotright_width 20
#define rotright_height 20
static unsigned char rotright_bits[] = {
   0x00, 0x00, 0x00, 0x00, 0x02, 0x00, 0x00, 0x02, 0x00, 0x00, 0x02, 0x00,
   0x00, 0x02, 0x00, 0x60, 0xf2, 0x03, 0xf0, 0xf2, 0x01, 0x38, 0xf2, 0x00,
   0x18, 0xf2, 0x01, 0x0c, 0xb2, 0x03, 0x0c, 0x12, 0x03, 0x0c, 0x02, 0x03,
   0x18, 0x82, 0x01, 0x38, 0xc2, 0x01, 0xf0, 0xff, 0x00, 0xc0, 0x3f, 0x00,
   0x00, 0x02, 0x00, 0x00, 0x02, 0x00, 0x00, 0x02, 0x00, 0x00, 0x00, 0x00};
