/* XPM */
static char *rotright[] = {
/* width height ncolors chars_per_pixel */
"22 22 3 1",
/* colors */
"  c #000",
". c #FFF",
"X c None",
/* pixels */
"XXXXXXXXXXXXXXXXXXXXXX",
"XXXXXXXXXXXXXXXXXXXXXX",
"XXXXXXXXXX XXXXXXXXXXX",
"XXXXXXXXXX XXXXXXXXXXX",
"XXXXXXXXXX XXXXXXXXXXX",
"XXXXXXXXXX XXXXXXXXXXX",
"XXXXXX  XX XX      XXX",
"XXXXX    X XX     XXXX",
"XXXX   XXX XX    XXXXX",
"XXXX  XXXX XX     XXXX",
"XXX  XXXXX XX  X   XXX",
"XXX  XXXXX XX XXX  XXX",
"XXX  XXXXX XXXXXX  XXX",
"XXXX  XXXX XXXXX  XXXX",
"XXXX   XXX XXXX   XXXX",
"XXXXX            XXXXX",
"XXXXXXX        XXXXXXX",
"XXXXXXXXXX XXXXXXXXXXX",
"XXXXXXXXXX XXXXXXXXXXX",
"XXXXXXXXXX XXXXXXXXXXX",
"XXXXXXXXXXXXXXXXXXXXXX",
"XXXXXXXXXXXXXXXXXXXXXX"
};
