/* XPM */
static char *rotup[] = {
/* width height ncolors chars_per_pixel */
"22 22 3 1",
/* colors */
"  c #000",
". c #FFF",
"X c None",
/* pixels */
"XXXXXXXXXXXXXXXXXXXXXX",
"XXXXXXXXXXXXXXXXXXXXXX",
"XXXXXXXXXXXXXXXXXXXXXX",
"XXXXXXXXX   XXX XXXXXX",
"XXXXXXX      X  XXXXXX",
"XXXXXX   XX     XXXXXX",
"XXXXXX  XXXX    XXXXXX",
"XXXXX  XXXX     XXXXXX",
"XXXXX  XXX      XXXXXX",
"XXXXX  XXXXXXXXXXXXXXX",
"XXXXX  XXXXXXXXXXXXXXX",
"XX  X  X            XX",
"XXXXX  XXXXXXXXXXXXXXX",
"XXXXX  XXXXXXX XXXXXXX",
"XXXXX  XXXXXXX  XXXXXX",
"XXXXXX  XXXXX   XXXXXX",
"XXXXXX   XXX   XXXXXXX",
"XXXXXXX       XXXXXXXX",
"XXXXXXXXX   XXXXXXXXXX",
"XXXXXXXXXXXXXXXXXXXXXX",
"XXXXXXXXXXXXXXXXXXXXXX",
"XXXXXXXXXXXXXXXXXXXXXX"
};
