/* XPM */
static char *dummy[]={
"32 32 4 1",
"a c #333333",
"# c #7b7b7b",
"b c #e1e1e1",
". c #ffffff",
"................................",
"..................##............",
".............#########..........",
"........###############.........",
"...######################.......",
"...a#######################.....",
"...aa########################...",
"...aaa########################..",
"...aaaa###################bbbb..",
"...aaaaaa#############bbbbbbbb..",
"...aaaaaaa########bbbbbbbbbbbb..",
"...aaaaaaaa###bbbbbbbbbbbbbbbb..",
"....aaaaaaaabbbbbbbbbbbbbbbbbb..",
"....aaaaaaaabbbbbbbbbbbbbbbbbb..",
"....aaaaaaaabbbbbbbbbbbbbbbbbb..",
"....aaaaaaaabbbbbbbbbbbbbbbbbb..",
"....aaaaaaaabbbbbbbbbbbbbbbbb...",
"....aaaaaaaabbbbbbbbbbbbbbbbb...",
"....aaaaaaaabbbbbbbbbbbbbbbbb...",
"....aaaaaaaabbbbbbbbbbbbbbbbb...",
"....aaaaaaaabbbbbbbbbbbbbbbbb...",
".....aaaaaaabbbbbbbbbbbbbbbbb...",
"......aaaaaabbbbbbbbbbbbbbbbb...",
".......aaaaabbbbbbbbbbbbbbbbb...",
".......aaaaabbbbbbbbbbbbbbbb....",
"........aaaabbbbbbbbbbbbbb......",
".........aaabbbbbbbbbbb.........",
"..........aabbbbbbbb............",
"...........abbbbb...............",
"............bbb.................",
"................................",
"................................"};
