/* XPM */
static char *dummy[]={
"32 32 5 1",
"# c #1a1a1a",
"c c #1a1aff",
"a c #39ed39",
". c None",
"b c #ff3737",
"................................",
"...............##...............",
".............##aa##.............",
"...........##aaaaaa##...........",
".........##aaaaaaaaaa##.........",
"......###aaaaaaaaaaaaaa###......",
"....##aaaaaaaaaaaaaaaaaaaa##....",
"..##aaaaaaaaaaaaaaaaaaaaaaaa##..",
".#aaaaaaaaaaaaaaaaaaaaaaaaaaaa#.",
".###aaaaaaaaaaaaaaaaaaaaaaaa###.",
".####aaaaaaaaaaaaaaaaaaaaaa####.",
".#bb##aaaaaaaaaaaaaaaaaaaa##cc#.",
"..#bb###aaaaaaaaaaaaaaaa###cc#..",
"..#bbb###aaaaaaaaaaaaaa###ccc#..",
"..#bbbbb##aaaaaaaaaaaa##ccccc#..",
"...#bbbbb##aaaaaaaaaa##ccccc#...",
"...#bbbbbb###aaaaaa###cccccc#...",
"...#bbbbbbb###aaaa###ccccccc#...",
"....#bbbbbbbb##aa##cccccccc#....",
"....#bbbbbbbbb####ccccccccc#....",
"....#bbbbbbbbbb##cccccccccc#....",
".....#bbbbbbbbb##ccccccccc#.....",
"......#bbbbbbbb##cccccccc#......",
".......#bbbbbbb##ccccccc#.......",
"........#bbbbbb##cccccc#........",
".........#bbbbb##ccccc#.........",
"..........#bbbb##cccc#..........",
"...........#bbb##ccc#...........",
"............#bb##cc#............",
".............#b##c#.............",
"..............####..............",
"...............##..............."};
