/* XPM */
static char *next[] = {
/* width height ncolors chars_per_pixel */
"22 22 3 1",
/* colors */
"  c #000",
". c #FFF",
"X c None",
/* pixels */
"XXXXXXXXXXXXXXXXXXXXXX",
"XXXXXXXXXXXXXXXXXXXXXX",
"XXXXXXXXXXXXXXXXXXXXXX",
"XXXXX            XXXXX",
"XXXXX            XXXXX",
"XXXXX            XXXXX",
"XXXXX            XXXXX",
"XXXXX            XXXXX",
"XXXXX            XXXXX",
"XXXXX            XXXXX",
"XXXXX            XXXXX",
"XXXXX            XXXXX",
"XXXXX            XXXXX",
"XXXXX            XXXXX",
"XXXXX            XXXXX",
"XXXXX            XXXXX",
"XXXXX            XXXXX",
"XXXXX            XXXXX",
"XXXXX            XXXXX",
"XXXXXXXXXXXXXXXXXXXXXX",
"XXXXXXXXXXXXXXXXXXXXXX",
"XXXXXXXXXXXXXXXXXXXXXX"
};
