#define topview_width 20
#define topview_height 20
static unsigned char topview_bits[] = {
   0x00, 0x00, 0x00, 0x00, 0x80, 0x00, 0x00, 0x80, 0x01, 0xf8, 0xff, 0x03,
   0x08, 0x80, 0x01, 0x08, 0x80, 0x00, 0x08, 0x00, 0x00, 0x08, 0xc0, 0x06,
   0x08, 0x80, 0x03, 0x08, 0x00, 0x01, 0x08, 0x80, 0x03, 0x08, 0xc0, 0x06,
   0x08, 0x00, 0x00, 0x88, 0x0f, 0x00, 0x3e, 0x0c, 0x00, 0x1c, 0x02, 0x00,
   0x88, 0x01, 0x00, 0x80, 0x0f, 0x00, 0x00, 0x00, 0x00, 0x00, 0x00, 0x00};
