/* XPM */
static char *topview[] = {
/* width height ncolors chars_per_pixel */
"22 22 3 1",
/* colors */
"  c #000",
". c #FFF",
"X c None",
/* pixels */
"XXXXXXXXXXXXXXXXXXXXXX",
"XXXXXXXXXXXXXXXXXXXXXX",
"XXXXXXXXXXXXXXXX XXXXX",
"XXXXXXXXXXXXXXXX  XXXX",
"XXXX               XXX",
"XXXX XXXXXXXXXXX  XXXX",
"XXXX XXXXXXXXXXX XXXXX",
"XXXX XXXXXXXXXXXXXXXXX",
"XXXX XXXXXXXXXX  X  XX",
"XXXX XXXXXXXXXXX   XXX",
"XXXX XXXXXXXXXXXX XXXX",
"XXXX XXXXXXXXXXX   XXX",
"XXXX XXXXXXXXXX  X  XX",
"XXXX XXXXXXXXXXXXXXXXX",
"XXXX XXX     XXXXXXXXX",
"XX     XXXX  XXXXXXXXX",
"XXX   XXXX XXXXXXXXXXX",
"XXXX XXX  XXXXXXXXXXXX",
"XXXXXXXX     XXXXXXXXX",
"XXXXXXXXXXXXXXXXXXXXXX",
"XXXXXXXXXXXXXXXXXXXXXX",
"XXXXXXXXXXXXXXXXXXXXXX"
};
