#define topview_width 22
#define topview_height 22

static unsigned char topview_bits[] = {
 0x00, 0x00, 0x00, 0x00, 0x00, 0x00, 0x00, 0x00, 0x01, 0x00, 0x00, 0x03,
 0xf0, 0xff, 0x07, 0x10, 0x00, 0x03, 0x10, 0x00, 0x01, 0x10, 0x00, 0x00,
 0x10, 0x80, 0x0d, 0x10, 0x00, 0x07, 0x10, 0x00, 0x02, 0x10, 0x00, 0x07,
 0x10, 0x80, 0x0d, 0x10, 0x00, 0x00, 0x10, 0x1f, 0x00, 0x7c, 0x18, 0x00,
 0x38, 0x04, 0x00, 0x10, 0x03, 0x00, 0x00, 0x1f, 0x00, 0x00, 0x00, 0x00,
 0x00, 0x00, 0x00, 0x00, 0x00, 0x00 };
