/* XPM */
static char *twistleft[] = {
/* width height ncolors chars_per_pixel */
"22 22 3 1",
/* colors */
"  c #000",
". c #FFF",
"X c None",
/* pixels */
"XXXXXXXXXXXXXXXXXXXXXX",
"XXXXXXXXXXXXXXXXXXXXXX",
"XXXXXXXXXXXXXXXXXXXXXX",
"XXXXXXXXXXXXXXXXXXXXXX",
"XXXXXXXX  XXXXXXXXXXXX",
"XXXXXX    XXXXXX XXXXX",
"XXXXX   XXXXXXX   XXXX",
"XXXX  XXXXXXXXX    XXX",
"XXXX  XXXXXXXX      XX",
"XXX  XXXXXXXX     XXXX",
"XXX  XXXX   XXXX  XXXX",
"XXX  XXXX   XXXX  XXXX",
"XXX  XXXX   XXXX  XXXX",
"XXX  XXXXXXXXXXX  XXXX",
"XXXX  XXXXXXXXX  XXXXX",
"XXXX  XXXXXXXXX  XXXXX",
"XXXXX   XXXXX   XXXXXX",
"XXXXXX         XXXXXXX",
"XXXXXXXX     XXXXXXXXX",
"XXXXXXXXXXXXXXXXXXXXXX",
"XXXXXXXXXXXXXXXXXXXXXX",
"XXXXXXXXXXXXXXXXXXXXXX"
};
