#define twistleft_width 20
#define twistleft_height 20
static unsigned char twistleft_bits[] = {
   0x00, 0x00, 0x00, 0x00, 0x00, 0x00, 0x00, 0x00, 0x00, 0x80, 0x01, 0x00,
   0xe0, 0x81, 0x00, 0x70, 0xc0, 0x01, 0x18, 0xc0, 0x03, 0x18, 0xe0, 0x07,
   0x0c, 0xf0, 0x01, 0x0c, 0x87, 0x01, 0x0c, 0x87, 0x01, 0x0c, 0x87, 0x01,
   0x0c, 0x80, 0x01, 0x18, 0xc0, 0x00, 0x18, 0xc0, 0x00, 0x70, 0x70, 0x00,
   0xe0, 0x3f, 0x00, 0x80, 0x0f, 0x00, 0x00, 0x00, 0x00, 0x00, 0x00, 0x00};
