#define unhappy_width 22
#define unhappy_height 22

static unsigned char unhappy_bits[] = {
 0x00, 0x00, 0x00, 0x00, 0x00, 0x00, 0x00, 0x00, 0x00, 0xc0, 0xc0, 0x00,
 0x20, 0x21, 0x01, 0x00, 0x00, 0x00, 0xc0, 0xc0, 0x00, 0xc0, 0xc0, 0x00,
 0x00, 0x00, 0x00, 0x00, 0x00, 0x00, 0x00, 0x00, 0x00, 0x80, 0x7f, 0x00,
 0xe0, 0xff, 0x01, 0x70, 0x80, 0x03, 0x30, 0x00, 0x03, 0x18, 0x00, 0x06,
 0x08, 0x00, 0x04, 0x00, 0x00, 0x00, 0x00, 0x00, 0x00, 0x00, 0x00, 0x00,
 0x00, 0x00, 0x00, 0x00, 0x00, 0x00 };
