/* XPM */
static char *unhappy[] = {
/* width height ncolors chars_per_pixel */
"22 22 3 1",
/* colors */
"  c #000",
". c #FFF",
"X c None",
/* pixels */
"XXXXXXXXXXXXXXXXXXXXXX",
"XXXXXXXXXXXXXXXXXXXXXX",
"XXXXXXXXXXXXXXXXXXXXXX",
"XXXXXX  XXXXXX  XXXXXX",
"XXXXX XX XXXX XX XXXXX",
"XXXXXXXXXXXXXXXXXXXXXX",
"XXXXXX  XXXXXX  XXXXXX",
"XXXXXX  XXXXXX  XXXXXX",
"XXXXXXXXXXXXXXXXXXXXXX",
"XXXXXXXXXXXXXXXXXXXXXX",
"XXXXXXXXXXXXXXXXXXXXXX",
"XXXXXXX        XXXXXXX",
"XXXXX            XXXXX",
"XXXX   XXXXXXXX   XXXX",
"XXXX  XXXXXXXXXX  XXXX",
"XXX  XXXXXXXXXXXX  XXX",
"XXX XXXXXXXXXXXXXX XXX",
"XXXXXXXXXXXXXXXXXXXXXX",
"XXXXXXXXXXXXXXXXXXXXXX",
"XXXXXXXXXXXXXXXXXXXXXX",
"XXXXXXXXXXXXXXXXXXXXXX",
"XXXXXXXXXXXXXXXXXXXXXX"
};
