#define userview_width 22
#define userview_height 22

static unsigned char userview_bits[] = {
 0x00, 0x00, 0x00, 0x00, 0x00, 0x00, 0x00, 0x00, 0x00, 0x00, 0x00, 0x04,
 0x18, 0xf8, 0x07, 0xf0, 0x0f, 0x02, 0x40, 0x00, 0x03, 0xc0, 0x83, 0x01,
 0xc0, 0x87, 0x00, 0x80, 0xcf, 0x00, 0x80, 0x4f, 0x00, 0x80, 0x6f, 0x00,
 0x00, 0x2f, 0x00, 0x00, 0x27, 0x00, 0x00, 0x36, 0x00, 0x00, 0x1c, 0x00,
 0x00, 0x10, 0x00, 0x00, 0x10, 0x00, 0x00, 0x00, 0x00, 0x00, 0x00, 0x00,
 0x00, 0x00, 0x00, 0x00, 0x00, 0x00 };
