#define userview1_width 20
#define userview1_height 20
static unsigned char userview1_bits[] = {
   0x00, 0x00, 0x00, 0x00, 0x00, 0x00, 0x00, 0x00, 0x01, 0x06, 0xfe, 0x01,
   0xfc, 0x83, 0x00, 0x10, 0xc0, 0x00, 0xf0, 0x60, 0x00, 0xf0, 0x21, 0x00,
   0xe0, 0x33, 0x00, 0xe0, 0x13, 0x00, 0xe0, 0x1b, 0x00, 0xc0, 0x0b, 0x01,
   0xc0, 0x89, 0x01, 0x80, 0x0d, 0x01, 0x00, 0x07, 0x01, 0x00, 0x04, 0x01,
   0x00, 0x04, 0x01, 0x00, 0x80, 0x03, 0x00, 0x00, 0x00, 0x00, 0x00, 0x00};
