/* XPM */
static char *userview1[] = {
/* width height ncolors chars_per_pixel */
"22 22 3 1",
/* colors */
"  c #000",
". c #FFF",
"X c None",
/* pixels */
"XXXXXXXXXXXXXXXXXXXXXX",
"XXXXXXXXXXXXXXXXXXXXXX",
"XXXXXXXXXXXXXXXXXXXXXX",
"XXXXXXXXXXXXXXXXX XXXX",
"XX  XXXXXX        XXXX",
"XXX        ..... XXXXX",
"XXXXX .........  XXXXX",
"XXXXX    .....  XXXXXX",
"XXXXX     .... XXXXXXX",
"XXXXXX     ..  XXXXXXX",
"XXXXXX     .. XXXXXXXX",
"XXXXXX     .  XXXXXXXX",
"XXXXXXX    . XXXX XXXX",
"XXXXXXX   .. XXX  XXXX",
"XXXXXXXX  .  XXXX XXXX",
"XXXXXXXXX   XXXXX XXXX",
"XXXXXXXXXXX XXXXX XXXX",
"XXXXXXXXXXX XXXXX XXXX",
"XXXXXXXXXXXXXXXX   XXX",
"XXXXXXXXXXXXXXXXXXXXXX",
"XXXXXXXXXXXXXXXXXXXXXX",
"XXXXXXXXXXXXXXXXXXXXXX"
};
