/* XPM */
static char *dummy[]={
"32 32 5 1",
"# c #008000",
"a c #00ffff",
". c #d3d3d3",
"b c #ff0000",
"c c #ff00ff",
"................................",
"................................",
"..............##aa..............",
"............####aaaa............",
".........#####.aa.aaaaa.........",
".......#####...aa...aaaaa.......",
".....####......aa......aaaa.....",
"...####........aa........aaaa...",
"..b##..........aa..........aa#..",
".bbb...........aa...........##a.",
".bbbb..........aa..........##aa.",
"..bbbb.........aa.........##aa..",
"..bb.bbb.......aa.......###.aa..",
"..bb..bbb......aa......###..aa..",
"...bb...bb....ccaa....##...aa...",
"...bb....bbb.cccaaa.###....aa...",
"...bb.....bbbc....a###.....aa...",
"....bb....ccbb....##aa....aa....",
"....bb..ccc..bb..##..aaa..aa....",
"....bb.ccc....bb##....aaa.aa....",
".....bbc.......b#.......aaa.....",
".....bb........bb........cc.....",
"......bb.......bb.......cc......",
".......bb......bb......cc.......",
"........bb.....bb.....cc........",
".........bb....bb....cc.........",
"..........bb...bb...cc..........",
"...........bb..bb..cc...........",
"............bb.bb.cc............",
".............bbbbcc.............",
"..............bbbc..............",
"................................"};
