#define zoomout2_width 20
#define zoomout2_height 20
static unsigned char zoomout2_bits[] = {
   0x00, 0x00, 0x00, 0x00, 0x00, 0x00, 0x7c, 0xe0, 0x03, 0x1c, 0x80, 0x03,
   0x3c, 0xc0, 0x03, 0x74, 0xe0, 0x02, 0xe4, 0x70, 0x02, 0xc0, 0x30, 0x00,
   0x00, 0x06, 0x00, 0x00, 0x0f, 0x00, 0x00, 0x0f, 0x00, 0x00, 0x06, 0x00,
   0xc0, 0x30, 0x00, 0xe4, 0x70, 0x02, 0x74, 0xe0, 0x02, 0x3c, 0xc0, 0x03,
   0x1c, 0x80, 0x03, 0x7c, 0xe0, 0x03, 0x00, 0x00, 0x00, 0x00, 0x00, 0x00};
