#define zoomin2_width 20
#define zoomin2_height 20
static unsigned char zoomin2_bits[] = {
   0x00, 0x00, 0x00, 0x04, 0x00, 0x02, 0x0e, 0x00, 0x07, 0x9c, 0x90, 0x03,
   0xb8, 0xd0, 0x01, 0xf0, 0xf0, 0x00, 0xe0, 0x70, 0x00, 0xf8, 0xf0, 0x01,
   0x00, 0x06, 0x00, 0x00, 0x0f, 0x00, 0x00, 0x0f, 0x00, 0x00, 0x06, 0x00,
   0xf8, 0xf0, 0x01, 0xe0, 0x70, 0x00, 0xf0, 0xf0, 0x00, 0xb8, 0xd0, 0x01,
   0x9c, 0x90, 0x03, 0x0e, 0x00, 0x07, 0x04, 0x00, 0x02, 0x00, 0x00, 0x00};
