/* XPM */
static char *zoomout[] = {
/* width height ncolors chars_per_pixel */
"22 22 3 1",
/* colors */
"  c #000",
". c #FFF",
"X c None",
/* pixels */
"XXXXXXXXXXXXXXXXXXXXXX",
"XXXXXXXXXXXXXXXXXXXXXX",
"XXXXXXXXXXXXXXXXXXXXXX",
"XXX     XXXXXX     XXX",
"XXX   XXXXXXXXXX   XXX",
"XXX    XXXXXXXX    XXX",
"XXX X   XXXXXX   X XXX",
"XXX XX   XXXX   XX XXX",
"XXXXXXX  XXXX  XXXXXXX",
"XXXXXXXXXX  XXXXXXXXXX",
"XXXXXXXXX    XXXXXXXXX",
"XXXXXXXXX    XXXXXXXXX",
"XXXXXXXXXX  XXXXXXXXXX",
"XXXXXXX  XXXX  XXXXXXX",
"XXX XX   XXXX   XX XXX",
"XXX X   XXXXXX   X XXX",
"XXX    XXXXXXXX    XXX",
"XXX   XXXXXXXXXX   XXX",
"XXX     XXXXXX     XXX",
"XXXXXXXXXXXXXXXXXXXXXX",
"XXXXXXXXXXXXXXXXXXXXXX",
"XXXXXXXXXXXXXXXXXXXXXX"
};
