#define zoomout_width 22
#define zoomout_height 22

static unsigned char zoomout_bits[] = {
 0x00, 0x00, 0x00, 0x00, 0x00, 0x00, 0x00, 0x00, 0x00, 0xf8, 0xc0, 0x07,
 0x38, 0x00, 0x07, 0x78, 0x80, 0x07, 0xe8, 0xc0, 0x05, 0xc8, 0xe1, 0x04,
 0x80, 0x61, 0x00, 0x00, 0x0c, 0x00, 0x00, 0x1e, 0x00, 0x00, 0x1e, 0x00,
 0x00, 0x0c, 0x00, 0x80, 0x61, 0x00, 0xc8, 0xe1, 0x04, 0xe8, 0xc0, 0x05,
 0x78, 0x80, 0x07, 0x38, 0x00, 0x07, 0xf8, 0xc0, 0x07, 0x00, 0x00, 0x00,
 0x00, 0x00, 0x00, 0x00, 0x00, 0x00 };
