#define zoomin_width 22
#define zoomin_height 22

static unsigned char zoomin_bits[] = {
 0x00, 0x00, 0x00, 0x00, 0x00, 0x00, 0x08, 0x00, 0x04, 0x1c, 0x00, 0x0e,
 0x38, 0x21, 0x07, 0x70, 0xa1, 0x03, 0xe0, 0xe1, 0x01, 0xc0, 0xe1, 0x00,
 0xf0, 0xe1, 0x03, 0x00, 0x0c, 0x00, 0x00, 0x1e, 0x00, 0x00, 0x1e, 0x00,
 0x00, 0x0c, 0x00, 0xf0, 0xe1, 0x03, 0xc0, 0xe1, 0x00, 0xe0, 0xe1, 0x01,
 0x70, 0xa1, 0x03, 0x38, 0x21, 0x07, 0x1c, 0x00, 0x0e, 0x08, 0x00, 0x04,
 0x00, 0x00, 0x00, 0x00, 0x00, 0x00 };
